<svg width="130" height="131" viewBox="0 0 130 131" fill="none" xmlns="http://www.w3.org/2000/svg">
<path d="M104.049 57.9373L105.198 52.7696M89.9171 97.3096C89.9171 97.3096 89.1703 87.8305 94.5128 83.7477C94.6851 83.605 94.8 83.4051 94.9436 83.2338C97.7585 79.8076 99.6542 76.5242 100.688 73.1837L102.44 65.2465M63.0612 77.8376C66.2207 72.6984 66.8526 66.2743 64.7271 60.6497C62.5442 54.8538 57.8623 50.5711 51.5433 48.5725C51.3997 48.5154 51.3135 48.3727 51.3422 48.2299C51.371 48.0872 51.5433 48.0015 51.6869 48.0301L68.2313 52.1985C72.6259 53.312 77.2216 50.8281 78.4567 46.4883C79.7492 41.9772 77.0205 37.3233 72.4823 36.1813L55.2198 31.8415C46.1434 29.5574 36.9233 35.0107 34.6255 44.0329L34.2521 45.4604C33.5915 48.0301 33.5627 50.771 34.1659 53.3691C34.568 55.0822 35.2287 56.7096 36.1191 58.2229L43.386 70.3001C45.4828 73.7833 45.9423 77.7805 45.6551 81.7777C45.0806 89.9433 45.1955 97.281 45.1955 97.281M79.3471 43.1192L84.5172 22.7051C85.4364 19.0505 83.196 15.3103 79.5194 14.3681C75.8429 13.4545 72.0802 15.6815 71.0749 19.6215L67.2835 34.5539L71.0749 19.593C72.0802 15.6529 69.8398 11.9127 66.1633 10.999C62.4867 10.0854 58.724 12.3124 57.8049 15.9955L53.8411 31.556M75.6418 111.014H92.3011C96.0926 111.014 99.1946 107.931 99.1946 104.162C99.1946 100.393 96.0926 97.3096 92.3011 97.3096H42.3232C38.5318 97.3096 35.4297 100.393 35.4297 104.162C35.4297 107.931 38.5318 111.014 42.3232 111.014H52.6635H75.6418ZM103.446 32.1555C99.7691 31.2419 96.0064 33.4689 95.0585 37.1235L92.2437 48.2014C91.3246 51.8559 93.5649 55.5961 97.2415 56.5383C100.918 57.4805 104.681 55.225 105.629 51.5704L108.443 40.4925C109.391 36.838 107.151 33.0977 103.446 32.1555ZM91.4969 23.2761C87.8204 22.3625 84.0577 24.5895 83.1098 28.244L79.5769 42.0914C78.6577 45.746 80.8981 49.4862 84.5747 50.4284C88.2512 51.342 92.0139 49.115 92.9618 45.4604L96.4947 31.6131C97.4138 27.93 95.1734 24.1897 91.4969 23.2761Z" stroke="#90C641" stroke-width="2" stroke-miterlimit="10"/>
<path d="M74.2344 51.5418L119.99 73.7833C122.144 74.7254 123.667 74.0973 124.241 73.098C124.787 72.0702 124.442 70.4713 122.46 69.2151L101.378 56.3099M54.789 27.7871L33.3904 14.7107C32.9309 13.3402 31.0351 8.68633 26.6405 7.08746C23.3374 5.88831 19.4311 6.7734 15.0939 9.71418C15.0652 9.71418 12.1067 11.6271 9.80889 10.8848C8.77487 10.5422 7.99935 9.71418 7.51106 8.34372C7.28127 7.85835 6.76426 7.60138 6.24725 7.74414C5.98874 7.82979 5.75896 8.0011 5.64407 8.22951C5.52917 8.42937 5.50045 8.65778 5.5579 8.88619C5.67279 9.48577 8.43019 23.4473 16.5301 27.8157C19.4598 29.4146 22.7055 29.5288 26.2097 28.1869L40.3988 35.0963M26.2959 28.3296L33.4479 14.9962M40.3701 19.3645L33.8213 31.613" stroke="#90C641" stroke-width="2" stroke-miterlimit="10"/>
</svg>
