<svg width="110" height="132" viewBox="0 0 110 132" fill="none" xmlns="http://www.w3.org/2000/svg">
<path d="M27.8609 81.1206C30.315 81.1206 32.1916 79.2574 32.1916 76.8209C32.1916 74.3844 30.315 72.5212 27.8609 72.5212C25.4068 72.5212 23.5302 74.3844 23.5302 76.8209C23.5302 79.1141 25.5512 81.1206 27.8609 81.1206Z" stroke="#90C641" stroke-width="2" stroke-miterlimit="10"/>
<path d="M108.556 80.834C106.102 80.834 103.793 80.404 101.916 79.5441L101.339 79.2574L100.761 79.5441C98.8845 80.404 96.7192 81.2639 93.9764 81.8372L92.8215 82.1239M92.8215 82.1239L92.9659 83.2704C93.1102 84.2737 93.1102 85.1336 93.1102 85.8503C93.1102 94.8796 89.2126 103.479 81.9948 110.215L81.706 110.502L77.231 127.27C76.6535 129.564 75.3543 130.567 73.0446 130.567H64.3832C61.9291 130.567 60.7743 129.564 60.1969 127.27L58.8976 121.394L57.5984 121.538C55.2887 121.824 52.979 121.968 50.8137 121.968C48.6483 121.968 46.4829 121.824 44.3176 121.538L43.0184 121.394L41.4305 127.27C40.853 129.564 39.5538 130.567 37.2441 130.567H28.5827C26.1286 130.567 24.9738 129.564 24.3963 127.27L20.9318 111.505L20.643 111.218C16.6011 107.635 13.2808 103.336 11.2598 98.7493L10.9711 98.0327L5.05249 97.0294C2.45407 96.5994 1.44357 95.4529 1.44357 93.1597V76.5343C1.44357 74.2411 2.45407 72.9512 4.76378 72.5213L11.9816 71.3747L12.2703 70.8014C14.0026 67.6483 16.3123 64.6385 19.0551 62.0587L19.6325 61.4854L19.4882 60.7688C18.622 55.6092 14.8688 51.1662 12.5591 49.0164C11.5486 48.0131 11.6929 47.2965 11.8373 46.8665C11.9816 46.4366 12.4147 45.8633 13.7139 45.8633H14.147C18.4777 45.8633 26.706 46.7232 33.0577 52.3128L33.6352 52.8861L34.5013 52.5994C39.6982 50.7362 45.0394 49.8763 50.6693 49.8763C71.3123 49.8763 88.7795 62.4887 92.3885 79.6874L92.8215 82.1239ZM102.638 67.7916C99.4619 67.7916 97.7297 70.3714 97.7297 73.0946C97.7297 75.2444 98.7402 77.2509 100.761 78.6841L101.627 79.2574L102.493 78.6841C105.669 76.6776 107.402 74.0978 107.113 71.6613C106.68 69.5115 104.803 67.7916 102.638 67.7916Z" stroke="#90C641" stroke-width="2" stroke-miterlimit="10" stroke-linecap="round" stroke-linejoin="round"/>
<path d="M39.8425 63.0618C41.8635 62.2018 45.4724 61.1986 50.6693 61.1986C56.0105 61.1986 59.6194 62.3452 61.4961 63.0618C62.5066 63.4917 63.6614 63.2051 64.3832 62.3452C65.105 61.4852 64.6719 60.1953 63.8058 59.7653C61.4961 58.7621 57.1654 57.1855 50.6693 57.1855C44.1732 57.1855 39.8425 58.6188 37.5328 59.7653C36.5223 60.1953 36.2336 61.4852 36.9554 62.3452C37.6772 63.2051 38.832 63.4917 39.8425 63.0618Z" stroke="#90C641" stroke-width="2" stroke-miterlimit="10" stroke-linecap="round"/>
<path d="M50.8137 38.5536C61.063 38.5536 69.5801 30.2409 69.5801 19.9217C69.5801 9.74582 61.2074 1.28979 50.8137 1.28979C40.5643 1.28979 32.0472 9.6025 32.0472 19.9217C32.0472 30.2409 40.4199 38.5536 50.8137 38.5536Z" stroke="#90C641" stroke-width="2" stroke-miterlimit="10" stroke-linecap="round"/>
<path d="M51.1024 27.948V32.9643" stroke="#90C641" stroke-width="2" stroke-miterlimit="10"/>
<path d="M50.6693 20.3518C46.1942 18.9186 46.1942 16.6254 46.1942 15.9088C46.1942 14.1889 47.2047 12.1824 50.2362 11.8958L51.2467 11.7524L52.1129 11.8958C53.4121 12.0391 54.5669 12.4691 55.4331 12.7557" stroke="#90C641" stroke-width="2" stroke-miterlimit="10"/>
<path d="M50.5249 20.3518C55 21.6417 55 24.0782 55 24.7948C55 26.3714 54.1339 28.0912 51.5354 28.6645L50.6693 28.8078H49.6588C48.2152 28.8078 46.6273 28.3779 45.6168 27.9479" stroke="#90C641" stroke-width="2" stroke-miterlimit="10"/>
</svg>
