<svg width="109" height="102" viewBox="0 0 109 102" fill="none" xmlns="http://www.w3.org/2000/svg">
<path d="M12.0687 13C10.4163 13 9 14.4104 9 16.0558V68.9442C9 70.5896 10.4163 72 12.0687 72H96.9312C98.5836 72 100 70.5896 100 68.9442V16.0558C100 14.4104 98.5836 13 96.9312 13H12.0687V13Z" stroke="#90C641" stroke-width="2" stroke-miterlimit="10" stroke-linecap="round" stroke-linejoin="round"/>
<path d="M12.5237 8C7.85318 8 4 11.8363 4 16.4863V68.7988C4 73.565 7.85318 77.285 12.5237 77.285H96.4763C101.264 77.285 105 73.4488 105 68.7988V16.4863C105 11.72 101.147 8 96.4763 8H12.5237ZM49.6543 30.0875C48.9538 30.0875 48.1364 30.6688 48.1364 31.4825V53.8025C48.1364 55.0813 49.4208 55.6625 50.3549 54.965L67.1688 43.805C68.1029 43.2237 68.1029 42.0613 67.1688 41.3638L50.3549 30.2038C50.1214 30.2038 49.8879 30.0875 49.6543 30.0875ZM43.8162 95.6525H103.365H43.8162ZM5.75145 95.6525H33.6578H5.75145ZM38.6786 90.8863C41.4809 90.8863 43.6994 93.2113 43.6994 95.885C43.6994 98.5588 41.4809 101 38.6786 101C35.8763 101 33.6578 98.7912 33.6578 96.0012C33.6578 93.2112 35.9931 90.8863 38.6786 90.8863Z" stroke="#90C641" stroke-width="2" stroke-miterlimit="10" stroke-linecap="round" stroke-linejoin="round"/>
</svg>
